<svg xmlns="http://www.w3.org/2000/svg" viewBox="0 0 32 32" fill="none">
  <rect width="32" height="32" rx="6" fill="#0b0d1c"/>
  <path d="m16 3 4 9 9 4-9 4-4 9-4-9-9-4 9-4Z" fill="#302653" stroke="#ad91f4" stroke-width="1.25" stroke-linejoin="round"/>
  <path d="m16 5 3 8-1 8-2 6-2-6-1-8Z" fill="#ad91f4"/>
  <path d="m16 5 0 11-3-3Zm0 11 3-3-1 8Zm0 0-2 5 2 6Z" fill="#725ba8"/>
  <path d="m6 16 7-2 3 2-3 2Zm20 0-7-2-3 2 3 2Z" fill="#91dff2" fill-opacity=".65"/>
  <path d="m16 13 2 3-2 3-2-3Z" fill="#eee9f7"/>
</svg>
